<?xml version="1.0" standalone="no"?>
<!DOCTYPE svg PUBLIC "-//W3C//DTD SVG 20010904//EN"
 "http://www.w3.org/TR/2001/REC-SVG-20010904/DTD/svg10.dtd">
<svg version="1.0" xmlns="http://www.w3.org/2000/svg"
 width="400.000000pt" height="400.000000pt" viewBox="0 0 400.000000 400.000000"
 preserveAspectRatio="xMidYMid meet">
<metadata>
Created by potrace 1.11, written by Peter Selinger 2001-2013
</metadata>
<g transform="translate(0.000000,400.000000) scale(0.100000,-0.100000)"
fill="#000000" stroke="none">
<path d="M935 3821 c-84 -39 -105 -83 -105 -220 l0 -98 -49 -5 c-93 -9 -203
-90 -252 -186 -24 -47 -24 -49 -27 -429 l-3 -383 1501 0 1500 0 0 364 c0 440
1 437 -100 537 -70 69 -129 99 -197 99 l-33 0 0 108 c0 91 -3 112 -21 142 -48
78 -133 108 -210 76 -85 -36 -109 -85 -109 -226 l0 -100 -830 0 -830 0 0 105
c0 115 -8 141 -57 186 -29 28 -81 49 -117 49 -12 0 -39 -9 -61 -19z"/>
<path d="M2570 2330 c-91 -33 -144 -54 -149 -57 -2 -1 2 -22 8 -45 11 -41 8
-53 -79 -313 -50 -148 -96 -283 -102 -299 l-12 -29 -165 6 c-135 5 -184 11
-261 32 -52 14 -105 29 -117 32 -29 7 -29 17 0 30 48 22 134 112 157 165 52
119 14 272 -83 345 -130 97 -170 103 -692 101 -346 -1 -425 -4 -425 -15 0 -9
15 -13 48 -13 26 0 64 -5 85 -11 72 -20 72 -13 75 -609 3 -513 -3 -656 -30
-714 -14 -33 -52 -49 -128 -55 -52 -5 -65 -10 -68 -24 -4 -18 16 -18 460 -15
446 4 466 5 538 27 161 48 262 116 313 208 35 66 54 176 40 237 -12 53 -16 51
92 46 11 0 35 2 53 6 34 7 37 4 22 -24 -5 -9 -34 -80 -64 -157 -75 -194 -91
-226 -123 -256 -38 -35 -66 -49 -101 -49 -50 0 -92 -12 -92 -26 0 -12 43 -14
240 -14 233 0 240 1 240 20 0 18 -7 20 -54 20 -29 0 -68 5 -86 11 -32 12 -32
12 -27 63 5 48 36 157 57 201 12 24 60 162 67 190 4 17 20 23 101 37 53 10
113 20 132 24 19 3 40 10 46 15 6 5 18 7 26 4 7 -3 40 4 73 15 33 11 68 22 77
25 9 2 26 8 36 14 18 10 23 3 57 -82 91 -226 165 -434 165 -466 0 -30 -43 -48
-132 -56 -56 -5 -78 -11 -78 -21 0 -12 57 -14 341 -14 319 0 340 1 337 17 -3
15 -17 19 -75 23 -89 6 -107 22 -163 135 -22 45 -40 84 -40 88 0 4 -12 32 -26
64 -15 32 -48 119 -75 193 -26 74 -52 150 -59 168 -8 22 -19 32 -33 33 -20 1
-20 1 2 8 23 6 40 41 20 41 -5 0 -9 -7 -9 -15 0 -8 -7 -15 -16 -15 -11 0 -14
5 -10 16 3 9 6 19 6 22 0 7 9 12 103 51 26 11 47 23 47 27 0 3 -7 4 -14 1 -10
-4 -13 -1 -10 8 3 8 9 14 12 14 15 -2 52 14 52 22 0 5 9 9 19 9 11 0 21 3 23
8 2 4 17 15 33 24 17 10 29 22 28 28 -2 5 9 13 25 16 35 9 53 23 45 38 -3 6
-3 8 1 5 4 -4 26 12 49 35 45 43 120 96 136 96 6 0 15 9 21 20 20 37 -6 24
-160 -75 -52 -33 -152 -85 -265 -137 -145 -67 -176 -80 -180 -76 -1 1 -19 50
-38 108 -19 58 -46 134 -60 170 -14 36 -44 117 -67 180 -23 63 -47 127 -53
142 l-12 26 -75 -28z m-1113 -104 c73 -23 143 -75 178 -131 28 -45 30 -54 30
-149 0 -91 -3 -105 -27 -146 -14 -25 -38 -56 -52 -69 l-25 -24 -41 26 c-56 38
-91 35 -126 -9 -23 -28 -29 -47 -31 -91 -1 -48 2 -59 25 -81 33 -30 218 -119
287 -136 48 -12 51 -15 67 -62 9 -27 17 -66 17 -87 1 -45 -32 -149 -62 -192
-81 -118 -244 -194 -415 -195 -124 0 -163 40 -182 191 -11 94 -13 1103 -1
1133 15 39 49 47 181 43 77 -3 145 -11 177 -21z m1118 -365 c42 -106 75 -195
73 -196 -11 -10 -328 -69 -334 -62 -7 7 71 234 162 477 5 12 8 11 14 -5 5 -11
43 -107 85 -214z m380 -201 c-3 -5 -11 -10 -16 -10 -6 0 -7 5 -4 10 3 6 11 10
16 10 6 0 7 -4 4 -10z m-59 -17 c-1 -22 -22 -37 -37 -27 -8 4 -4 13 12 25 13
10 25 19 25 19 1 0 1 -8 0 -17z m-6 -78 c0 -14 -5 -25 -11 -25 -6 0 -8 9 -4
21 5 16 4 19 -5 14 -9 -5 -11 -4 -6 3 12 20 26 13 26 -13z m-78 8 c-7 -3 -17
-16 -23 -30 -7 -20 -11 -22 -23 -11 -8 7 -12 17 -9 21 6 10 43 26 58 26 6 -1
4 -3 -3 -6z m33 -13 c3 -5 1 -10 -4 -10 -6 0 -11 5 -11 10 0 6 2 10 4 10 3 0
8 -4 11 -10z"/>
<path d="M3363 1916 c-4 -7 -18 -18 -31 -25 -12 -7 -20 -16 -17 -22 7 -10 60
27 69 49 7 16 -11 15 -21 -2z"/>
<path d="M3298 1833 c-4 -10 -77 -57 -100 -66 -17 -6 -26 -27 -12 -27 15 0
122 72 128 85 5 15 -9 22 -16 8z"/>
<path d="M3142 1743 c-18 -7 -4 -23 19 -23 12 0 19 5 17 12 -5 14 -18 18 -36
11z"/>
<path d="M501 698 c-1 -94 2 -115 23 -163 30 -67 109 -148 174 -178 l47 -22
1234 -3 c1080 -2 1241 0 1287 13 69 20 150 87 194 161 34 57 35 61 37 174 2
111 2 113 -11 68 -18 -62 -47 -107 -100 -156 -52 -48 -75 -61 -141 -78 -76
-21 -2416 -20 -2492 0 -121 32 -218 135 -243 256 -5 24 -8 0 -9 -72z"/>
</g>
</svg>
